<svg xmlns="http://www.w3.org/2000/svg" xmlns:xlink="http://www.w3.org/1999/xlink" width="118" height="118" viewBox="0 0 118 118">
    <defs>
        <linearGradient id="c" x1="50%" x2="50%" y1="5.418%" y2="99.569%">
            <stop offset="0%" stop-color="#B992FF"/>
            <stop offset="28.743%" stop-color="#9D77DF"/>
            <stop offset="73.897%" stop-color="#6D5598"/>
            <stop offset="99.958%" stop-color="#5E4B7E"/>
        </linearGradient>
        <circle id="b" cx="54" cy="54" r="54"/>
        <filter id="a" width="113.9%" height="113.9%" x="-6.9%" y="-6.9%" filterUnits="objectBoundingBox">
            <feOffset in="SourceAlpha" result="shadowOffsetOuter1"/>
            <feGaussianBlur in="shadowOffsetOuter1" result="shadowBlurOuter1" stdDeviation="2.5"/>
            <feColorMatrix in="shadowBlurOuter1" values="0 0 0 0 0 0 0 0 0 0 0 0 0 0 0 0 0 0 0.5 0"/>
        </filter>
        <path id="e" d="M54 96c8.228-10.806 29-36.393 29-52.62C83 27.154 70.016 14 54 14S25 27.154 25 43.38C25 59.607 45.792 85.216 54 96z"/>
        <filter id="d" width="125.9%" height="118.3%" x="-12.9%" y="-9.1%" filterUnits="objectBoundingBox">
            <feOffset in="SourceAlpha" result="shadowOffsetOuter1"/>
            <feGaussianBlur in="shadowOffsetOuter1" result="shadowBlurOuter1" stdDeviation="2.5"/>
            <feColorMatrix in="shadowBlurOuter1" values="0 0 0 0 0 0 0 0 0 0 0 0 0 0 0 0 0 0 0.5 0"/>
        </filter>
    </defs>
    <g fill="none" fill-rule="evenodd">
        <g transform="translate(5 5)">
            <use fill="#000" filter="url(#a)" xlink:href="#b"/>
            <use fill="url(#c)" xlink:href="#b"/>
        </g>
        <g transform="translate(5 5)">
            <use fill="#000" filter="url(#d)" xlink:href="#e"/>
            <use fill="#FFF" xlink:href="#e"/>
        </g>
        <g fill="#9575CD" fill-rule="nonzero">
            <path d="M66.3 51.54C64.368 48.697 61.079 47 57.5 47c-3.579 0-6.868 1.697-8.8 4.54l-4.654 6.85a5.93 5.93 0 0 0-1.03 3.795 6.018 6.018 0 0 0 1.57 3.628 6.652 6.652 0 0 0 3.556 2.028c1.395.301 2.826.173 4.136-.37l.088-.038a13.723 13.723 0 0 1 10.355.037 6.917 6.917 0 0 0 4.136.372 6.65 6.65 0 0 0 3.555-2.029 6.015 6.015 0 0 0 1.572-3.627 5.93 5.93 0 0 0-1.03-3.797l-4.654-6.85zM45.695 50.708a4.83 4.83 0 0 0 2.958-2.86c.5-1.294.459-2.755-.115-4.114a6.168 6.168 0 0 0-2.942-3.122c-1.39-.688-2.916-.8-4.297-.315-2.778.973-4.052 4.1-2.841 6.973.967 2.287 3.224 3.73 5.506 3.73.582 0 1.166-.094 1.73-.292zM55 46c3.308 0 6-3.14 6-7s-2.692-7-6-7c-3.309 0-6 3.14-6 7s2.691 7 6 7zM65.554 47.738c.501.177 1.012.262 1.52.262 2.373 0 4.685-1.842 5.568-4.674.508-1.63.475-3.353-.094-4.852-.596-1.57-1.699-2.709-3.107-3.208-1.408-.5-2.93-.291-4.288.586-1.297.838-2.29 2.197-2.798 3.827-1.071 3.438.364 7.053 3.2 8.06zM79.038 46.892c-2.327-1.657-5.805-.939-7.755 1.6-1.948 2.541-1.643 5.957.679 7.614.847.605 1.847.894 2.871.894 1.785 0 3.642-.878 4.884-2.493 1.948-2.541 1.643-5.957-.679-7.615z"/>
        </g>
    </g>
</svg>
