<svg xmlns="http://www.w3.org/2000/svg" width="17" height="22" viewBox="0 0 17 22">
    <path fill="#9575CD" fill-rule="nonzero" stroke="#9575CD" stroke-width=".3" d="M15.955 4.03l-.154-2.4a.585.585 0 0 0-.145-.343.62.62 0 0 0-.343-.132l-2.4-.153a.44.44 0 0 0-.474.401v.007a.44.44 0 0 0 .408.466l1.486.097-1.864 1.864a4.787 4.787 0 0 0-7.78 2.857 4.791 4.791 0 0 0 .686 9.428v2.036H3.876a.44.44 0 0 0 0 .879h1.503v1.995a.44.44 0 0 0 .88 0v-1.995h1.503a.44.44 0 0 0 0-.88H6.258v-2.035a4.8 4.8 0 0 0 4.277-3.956 4.787 4.787 0 0 0 2.563-7.705l1.873-1.873.105 1.5a.44.44 0 1 0 .88-.058zM5.82 15.265a3.916 3.916 0 0 1-1.196-7.644 4.782 4.782 0 0 0 4.787 4.7h.198a3.92 3.92 0 0 1-3.79 2.944zm3.912-3.841h-.316a3.908 3.908 0 0 1-3.913-3.992h.317a3.92 3.92 0 0 1 3.916 3.917c0 .026-.004.048-.004.075zm3.475-2.967a3.912 3.912 0 0 1-1.027 1.806v.03a3.895 3.895 0 0 1-1.569.941A4.796 4.796 0 0 0 5.82 6.536H5.62a3.912 3.912 0 1 1 7.585 1.921z"/>
</svg>
