<svg xmlns="http://www.w3.org/2000/svg" width="130" height="130" viewBox="0 0 130 130">
    <g fill="none" fill-rule="evenodd">
        <circle cx="65" cy="65" r="65" fill="#F3F3F3"/>
        <g fill-rule="nonzero" transform="translate(26 27)">
            <path fill="#FFC850" d="M67.35.557c1.642-1.31 4.096-.163 4.096 1.915v33.055L43.815 19.49 67.35.557z"/>
            <path fill="#EBAF4B" d="M69.473 34.54L52.696 24.464 66.674 8.446c.978-1.12 2.799-.418 2.799 1.08V34.54z"/>
            <path fill="#FFC850" d="M9.423.557C7.782-.753 5.327.394 5.327 2.472v33.055L32.96 19.49 9.423.557z"/>
            <path fill="#EBAF4B" d="M7.3 34.54l16.777-10.076L10.1 8.446c-.977-1.12-2.798-.418-2.798 1.08V34.54z"/>
            <ellipse cx="38.88" cy="43.422" fill="#FFDC64" rx="35.527" ry="33.553"/>
            <path fill="#FF8087" d="M43.815 63.652v2.467a4.934 4.934 0 1 1-9.869 0v-2.467l4.934-2.467 4.935 2.467z"/>
            <path fill="#5D5360" d="M41.487 51.316h-5.213c-1.125 0-1.749 1.528-1.041 2.552l2.606 3.775c.536.775 1.546.775 2.082 0l2.607-3.775c.707-1.024.084-2.552-1.041-2.552z"/>
            <g fill="#E1A546">
                <path d="M73.453 66.042c-.199 0-.4-.041-.59-.129-7.742-3.586-19.86-5.717-19.982-5.739-.694-.12-1.147-.72-1.012-1.338.136-.619.802-1.022 1.502-.901.51.089 12.6 2.214 20.674 5.954.627.29.872.98.545 1.539-.228.39-.674.614-1.137.614zM76.016 58.057c-.11 0-.222-.013-.333-.04-7.178-1.718-20.229-1.392-20.357-1.387-.72.018-1.298-.476-1.319-1.106-.021-.63.535-1.156 1.241-1.175.55-.015 13.561-.34 21.1 1.465.683.164 1.087.79.904 1.398-.154.51-.67.844-1.236.845z"/>
            </g>
            <path fill="#FFC850" d="M47.812 74.463c-20.079 0-36.356-14.9-36.356-33.279 0-13.496 8.782-25.107 21.397-30.329-17.287 2.57-30.486 16.292-30.486 32.841 0 18.38 16.277 33.279 36.356 33.279 5.335 0 10.396-1.06 14.96-2.95a39.894 39.894 0 0 1-5.87.438z"/>
            <g fill="#E1A546">
                <path d="M4.307 66.042c-.462 0-.909-.223-1.137-.614-.327-.56-.082-1.248.545-1.539 8.075-3.74 20.164-5.865 20.674-5.954.695-.124 1.366.283 1.502.901.135.619-.318 1.218-1.012 1.338-.122.022-12.24 2.153-19.982 5.74-.189.087-.39.128-.59.128zM1.744 58.057c-.565 0-1.082-.336-1.236-.845-.183-.609.222-1.234.904-1.398 7.54-1.806 20.549-1.478 21.1-1.465.707.02 1.263.545 1.241 1.175-.021.63-.633 1.129-1.318 1.106-.132-.004-13.184-.332-20.357 1.388a1.43 1.43 0 0 1-.334.039z"/>
            </g>
            <path fill="#4B3F4E" d="M24.57 48.356c-2.442 0-4.44-1.9-4.44-4.222v-2.412c0-2.322 1.998-4.222 4.44-4.222 2.443 0 4.442 1.9 4.442 4.222v2.412c0 2.322-1.999 4.222-4.441 4.222z"/>
            <path fill="#5D5360" d="M23.83 36.514c-.253 0-.496.033-.74.064v6.28c0 1.401 1.326 2.537 2.961 2.537 1.635 0 2.96-1.136 2.96-2.537v-1.904c0-2.442-2.33-4.44-5.18-4.44z"/>
            <ellipse cx="23.584" cy="39.474" fill="#FFF" rx="2.467" ry="1.974"/>
            <path fill="#4B3F4E" d="M52.203 48.356c-2.443 0-4.441-1.9-4.441-4.222v-2.412c0-2.322 1.998-4.222 4.44-4.222 2.443 0 4.442 1.9 4.442 4.222v2.412c0 2.322-1.999 4.222-4.441 4.222z"/>
            <path fill="#5D5360" d="M53.436 36.514c-.253 0-.496.033-.74.064v6.28c0 1.401 1.326 2.537 2.96 2.537 1.636 0 2.961-1.136 2.961-2.537v-1.904c0-2.442-2.331-4.44-5.18-4.44z"/>
            <ellipse cx="53.19" cy="39.474" fill="#FFF" rx="2.467" ry="1.974"/>
            <path fill="#4B3F4E" d="M38.855 57.714l-3.162-6.051c-.057-.11-.09-.23-.133-.347h-.974c-1.365 0-2.121 1.53-1.263 2.557l3.162 3.782c.613.734 1.724.75 2.395.098-.007-.014-.017-.024-.025-.039z"/>
            <path fill="#E6646E" d="M38.88 61.185l-4.934 2.303v2.302c0 .366.057.717.143 1.057 1.241-.143 2.44-.479 3.558-.994v1.089c0 .635.552 1.151 1.233 1.151.682 0 1.234-.515 1.234-1.151v-1.089a11.71 11.71 0 0 0 3.557.994c.087-.34.144-.691.144-1.057v-2.302l-4.935-2.303z"/>
            <path fill="#EBAF4B" d="M45.295 66.12c-1.815 0-3.564-.47-5.057-1.358-.799-.475-1.916-.475-2.716 0-1.493.888-3.241 1.357-5.056 1.357-2.208 0-4.335-.71-5.989-2-.527-.412-.57-1.118-.098-1.576.473-.46 1.282-.497 1.812-.086 2.154 1.682 5.526 1.865 7.883.463 1.679-.997 3.935-.997 5.612 0 2.358 1.402 5.73 1.218 7.884-.462.527-.411 1.337-.374 1.812.086.473.459.428 1.164-.1 1.576-1.653 1.29-3.78 2-5.987 2z"/>
        </g>
    </g>
</svg>
