<svg xmlns="http://www.w3.org/2000/svg" width="130" height="130" viewBox="0 0 130 130">
    <g fill="none" fill-rule="evenodd">
        <circle cx="65" cy="65" r="65" fill="#F3F3F3"/>
        <g fill-rule="nonzero" transform="translate(23 27.72)">
            <path fill="#F5DCB4" d="M70.558 3.765H57.387c-4.775 1.955-5.833-1.36-15.806-1.36-9.973 0-11.031 3.315-15.806 1.36H12.603L10.847 37.93c1.098 13.428 9.165 20.737 15.532 23.4h30.404c6.366-2.663 14.434-9.972 15.532-23.4L70.558 3.765z"/>
            <path fill="#965A50" d="M57.852 2.65c14.998 4.467 6.833 27.501 16.49 37.458 1.387 1.43 3.837.794 4.416-1.107.764-2.512 1.528-6.485 1.406-12.163-.166-7.786 2.998-8.283 2.998-8.283S79.165 0 67.176 0c-3.996 0-9.324 2.65-9.324 2.65z"/>
            <path fill="#4B3F4E" d="M27.72 38.482c-2.651 0-4.82-2.104-4.82-4.677v-2.672c0-2.572 2.169-4.677 4.82-4.677 2.652 0 4.822 2.105 4.822 4.677v2.672c0 2.573-2.17 4.677-4.821 4.677z"/>
            <path fill="#5D5360" d="M27.118 25.254c-.206 0-.404.037-.603.07v6.802c0 1.518 1.08 2.748 2.41 2.748 1.332 0 2.411-1.23 2.411-2.748v-2.062c0-2.645-1.898-4.81-4.218-4.81z"/>
            <ellipse cx="27.118" cy="28.26" fill="#FFF" rx="1.808" ry="1.804"/>
            <path fill="#4B3F4E" d="M55.441 38.482c-2.651 0-4.82-2.104-4.82-4.677v-2.672c0-2.572 2.169-4.677 4.82-4.677 2.652 0 4.821 2.105 4.821 4.677v2.672c0 2.573-2.17 4.677-4.82 4.677z"/>
            <path fill="#5D5360" d="M54.839 25.254c-.207 0-.405.037-.603.07v6.802c0 1.518 1.08 2.748 2.41 2.748 1.332 0 2.41-1.23 2.41-2.748v-2.062c0-2.645-1.897-4.81-4.217-4.81z"/>
            <ellipse cx="56.044" cy="28.26" fill="#FFF" rx="1.808" ry="1.804"/>
            <path fill="#824641" d="M74.98 41.287c1.44 1.472 3.984.818 4.585-1.14.455-1.485.905-3.483 1.186-6.005-2.72-1.338-5.041-5.607-6.47-12.842C71.687 8.158 68.055.818 57.851 2.696 73.43 7.297 64.95 31.029 74.98 41.286z"/>
            <path fill="#E7C9A5" d="M25.976 61.33h6.566s-11.53-7.612-13.434-21.077C15.402 14.058 22.455 6.22 28.556 4.22c-.967.032-1.97-.128-3.215-.613H11.49L9.642 37.867C10.796 51.33 19.28 58.66 25.976 61.33z"/>
            <path fill="#965A50" d="M25.31 2.65C10.311 7.118 18.477 30.152 8.82 40.109c-1.387 1.43-3.836.794-4.415-1.107-.765-2.512-1.528-6.485-1.407-12.163C3.164 19.052 0 18.555 0 18.555S3.996 0 15.985 0c3.997 0 9.325 2.65 9.325 2.65z"/>
            <path fill="#824641" d="M24.105 2.486C22.795 1.85 18.707 0 15.497 0 3.874 0 0 18.91 0 18.91s3.067.507 2.906 8.443c-.002.106 0 .201-.001.306C10.337-1.83 21.756 1.45 24.105 2.486z"/>
            <ellipse cx="42.184" cy="61.331" fill="#BC8E78" rx="14.463" ry="10.823"/>
            <path fill="#FF8087" d="M33.747 61.33v6.615c0 3.653 2.968 6.614 6.629 6.614 3.66 0 6.628-2.961 6.628-6.614V61.33H33.747z"/>
            <path fill="#E6646E" d="M33.747 66.967a13.782 13.782 0 0 0 5.303-1.856v1.992c0 .797.594 1.443 1.326 1.443.732 0 1.325-.646 1.325-1.443v-2.01c1.562.97 3.376 1.611 5.303 1.874v-5.636H33.747v5.636z"/>
            <path fill="#D4AF91" d="M51.137 49.305H33.23c-5.705 0-10.33 3.23-10.33 7.215s4.625 7.216 10.33 7.216c2.873 0 5.468-.821 7.339-2.145a2.8 2.8 0 0 1 1.614-.502 2.8 2.8 0 0 1 1.615.502c1.87 1.324 4.466 2.145 7.339 2.145 5.705 0 10.33-3.23 10.33-7.216 0-3.985-4.625-7.215-10.33-7.215z"/>
            <path fill="#5D5360" d="M42.184 44.495c4.66 0 8.436 2.296 8.436 5.128 0 2.731-3.545 4.17-6.104 5.232a6.112 6.112 0 0 1-4.665 0c-2.558-1.063-6.104-2.501-6.104-5.232 0-2.832 3.777-5.128 8.437-5.128z"/>
            <path fill="#4B3F4E" d="M37.366 47.957c-.17-1.673.91-3.462.91-3.462-2.658.797-4.53 2.697-4.53 4.917 0 2.832 3.075 4.323 5.293 5.426 1.286.64 2.758.64 4.044 0 .477-.237.994-.494 1.511-.776-3-.579-6.885-2.74-7.228-6.105z"/>
        </g>
    </g>
</svg>
