<?xml version="1.0" encoding="UTF-8"?>
<svg width="37px" height="33px" viewBox="0 0 37 33" version="1.1" xmlns="http://www.w3.org/2000/svg" xmlns:xlink="http://www.w3.org/1999/xlink">
    <!-- Generator: Sketch 53.1 (72631) - https://sketchapp.com -->
    <title>Shape</title>
    <desc>Created with Sketch.</desc>
    <g id="Page-1" stroke="none" stroke-width="1" fill="none" fill-rule="evenodd">
        <g id="Pets" transform="translate(-346.000000, -690.000000)" fill="#FFFFFF" fill-rule="nonzero" stroke="#545454">
            <g id="Like" transform="translate(332.000000, 674.000000)">
                <path d="M31.146965,47.4938428 C29.7330475,46.263009 28.3698654,45.1063441 27.1671676,44.0860546 L27.161026,44.0807378 C23.6349106,41.0892533 20.5899811,38.5058313 18.4713745,35.960956 C16.103096,33.1159486 15,30.4184818 15,27.4716582 C15,24.6085737 15.9861374,21.9671989 17.7765656,20.033753 C19.588356,18.0774448 22.0743942,17 24.7775269,17 C26.7978669,17 28.6481095,17.6358865 30.2767181,18.8898484 C31.0986328,19.5228107 31.8436432,20.2974651 32.5,21.2010514 C33.1566239,20.2974651 33.9013672,19.5228107 34.7235489,18.8898484 C36.3521576,17.6358865 38.2024002,17 40.2227402,17 C42.9256058,17 45.411911,18.0774448 47.2237015,20.033753 C49.0141296,21.9671989 50,24.6085737 50,27.4716582 C50,30.4184818 48.8971711,33.1159486 46.5288925,35.9606902 C44.410286,38.5058313 41.3656235,41.0889874 37.8400421,44.0802062 C36.6352082,45.1020907 35.2698898,46.2606164 33.8527679,47.4943745 C33.4786606,47.8202929 32.9980087,48 32.5,48 C32.0017243,48 31.5213394,47.8202929 31.146965,47.4938428 Z" id="Shape"></path>
            </g>
        </g>
    </g>
</svg>