<?xml version="1.0" encoding="UTF-8"?>
<svg width="35px" height="31px" viewBox="0 0 35 31" version="1.1" xmlns="http://www.w3.org/2000/svg" xmlns:xlink="http://www.w3.org/1999/xlink">
    <!-- Generator: Sketch 53.1 (72631) - https://sketchapp.com -->
    <title>Shape@1x</title>
    <desc>Created with Sketch.</desc>
    <g id="Page-1" stroke="none" stroke-width="1" fill="none" fill-rule="evenodd">
        <g id="Pets" transform="translate(-339.000000, -503.000000)" fill="#CA1B1B" fill-rule="nonzero">
            <g id="Like" transform="translate(332.000000, 503.000000)">
                <path d="M24.5,31 C24.0017243,31 23.5213394,30.8202929 23.146965,30.4938428 C21.7330475,29.263009 20.3698654,28.1063441 19.1671676,27.0860546 L19.161026,27.0807378 C15.6349106,24.0892533 12.5899811,21.5058313 10.4713745,18.960956 C8.10309603,16.1159486 7,13.4184818 7,10.4716582 C7,7.60857371 7.98613737,4.9671989 9.77656559,3.03375296 C11.588356,1.07744484 14.0743942,0 16.7775269,0 C18.7978669,0 20.6481095,0.63588653 22.2767181,1.88984837 C23.0986328,2.52281065 23.8436432,3.2974651 24.5,4.20105137 C25.1566239,3.2974651 25.9013672,2.52281065 26.7235489,1.88984837 C28.3521576,0.63588653 30.2024002,0 32.2227402,0 C34.9256058,0 37.411911,1.07744484 39.2237015,3.03375296 C41.0141296,4.9671989 42,7.60857371 42,10.4716582 C42,13.4184818 40.8971711,16.1159486 38.5288925,18.9606902 C36.410286,21.5058313 33.3656235,24.0889874 29.8400421,27.0802062 C28.6352082,28.1020907 27.2698898,29.2606164 25.8527679,30.4943745 C25.4786606,30.8202929 24.9980087,31 24.5,31 L24.5,31 Z" id="Shape"></path>
            </g>
        </g>
    </g>
</svg>