<svg xmlns="http://www.w3.org/2000/svg" width="20" height="20" viewBox="0 0 20 20">
    <g fill="#9575CD" fill-rule="nonzero">
        <path stroke="#9575CD" stroke-width=".3" d="M12.651 3.671A3.588 3.588 0 0 0 9.184 1a3.618 3.618 0 0 0-3.128 1.798l-2.269 3.93v.001l-.001.001-2.27 3.93a3.605 3.605 0 0 0 1.319 4.92 3.613 3.613 0 0 0 4.76-1.07l4.698-8.11c.48-.828.607-1.797.358-2.729zM6.983 14.137a2.895 2.895 0 0 1-3.79.822 2.887 2.887 0 0 1-1.055-3.94l2.09-3.62.776.447 4.213 2.433-2.234 3.858zm4.69-8.097L9.577 9.658 5.674 7.405l1.003-1.738a.359.359 0 0 0-.621-.358L5.053 7.046l-.466-.269 2.09-3.62a2.899 2.899 0 0 1 2.507-1.44 2.87 2.87 0 0 1 2.774 2.14c.2.746.098 1.521-.285 2.183zM17.396 13.292c-.876-.25-2.03-.388-3.252-.388-1.22 0-2.375.138-3.25.388-1.041.298-1.57.716-1.57 1.244V17.725c0 .53.527.95 1.567 1.246.873.25 2.029.388 3.253.388 1.224 0 2.38-.138 3.254-.388 1.04-.297 1.567-.716 1.567-1.246V14.54v-.002c0-.529-.528-.948-1.57-1.246zm-6.306.69c.813-.232 1.898-.36 3.054-.36 1.157 0 2.241.128 3.055.36.864.247 1.048.512 1.049.556-.002.044-.186.31-1.05.556-.813.232-1.897.36-3.054.36-1.156 0-2.24-.128-3.054-.36-.867-.248-1.05-.514-1.05-.556 0-.042.183-.308 1.05-.556zm7.158 3.743c0 .051-.186.311-1.047.557-.812.232-1.897.36-3.057.36s-2.245-.128-3.056-.36c-.861-.246-1.047-.506-1.047-.557v-2.27c.23.122.513.232.852.328.876.25 2.03.388 3.251.388s2.376-.137 3.252-.388c.338-.096.622-.206.852-.328v.895c-.515.254-1.156.46-1.872.6a.359.359 0 1 0 .137.704 8.74 8.74 0 0 0 1.735-.516v.587z"/>
        <path d="M7.084 4.245a.359.359 0 0 0-.49.13l-.005.01a.359.359 0 0 0 .62.36l.006-.01a.359.359 0 0 0-.13-.49zM15.727 17.42a.358.358 0 0 0-.393-.32h-.008a.359.359 0 1 0 .068.715l.012-.002a.359.359 0 0 0 .32-.392z"/>
    </g>
</svg>
