<svg xmlns="http://www.w3.org/2000/svg" width="15" height="17" viewBox="0 0 15 17">
    <path fill="#9575CD" fill-rule="nonzero" d="M14.987 15.558l-1.735-9.477a.813.813 0 0 0-.806-.66H9.56a2.836 2.836 0 0 0 .877-2.046C10.437 1.79 9.12.5 7.5.5 5.88.5 4.563 1.79 4.563 3.375c0 .8.336 1.525.877 2.047H2.554a.813.813 0 0 0-.805.659L.013 15.558a.788.788 0 0 0 .178.655.825.825 0 0 0 .627.287h13.364a.825.825 0 0 0 .627-.287.788.788 0 0 0 .178-.655zM7.5 2.101c.718 0 1.301.571 1.301 1.274 0 .702-.583 1.273-1.301 1.273s-1.301-.571-1.301-1.273c0-.703.583-1.274 1.301-1.274zm-.214 10.787a.244.244 0 0 1-.214.125h-.386a.245.245 0 0 1-.21-.118L5.521 11.3l-.61.61v.735a.373.373 0 0 1-.377.368.373.373 0 0 1-.377-.368V9.73c0-.204.169-.369.377-.369s.376.165.376.369v1.252L6.36 9.44a.246.246 0 0 1 .18-.077h.33c.098 0 .186.057.225.146a.235.235 0 0 1-.05.258L6.04 10.784l1.236 1.86a.234.234 0 0 1 .01.244zm3.71-.486a.237.237 0 0 1-.09.187c-.151.117-.35.222-.595.316-.3.113-.603.17-.91.17-.39 0-.73-.08-1.02-.24-.29-.16-.508-.39-.654-.687a2.181 2.181 0 0 1-.219-.973c0-.38.082-.718.244-1.013a1.63 1.63 0 0 1 .715-.68c.24-.121.537-.182.894-.182.463 0 .824.095 1.085.285.113.082.208.178.286.288a.37.37 0 0 1 .04.357.382.382 0 0 1-.285.228.376.376 0 0 1-.384-.164.759.759 0 0 0-.2-.208.91.91 0 0 0-.542-.156c-.33 0-.591.102-.785.306-.195.205-.292.507-.292.91 0 .433.099.758.295.974.197.217.455.325.774.325.158 0 .316-.03.475-.09.158-.061.294-.135.408-.221v-.463h-.548a.31.31 0 0 1-.315-.308c0-.17.141-.307.315-.307h1.065c.135 0 .244.106.244.238v1.108z"/>
</svg>
